<svg xmlns="http://www.w3.org/2000/svg" viewBox="0 0 283.46 149.83"><defs><style>.cls-1{fill:#0061a1;}.cls-2{fill:#009fe3;}.cls-3{fill:#9cd8f7;}.cls-4{fill:#706f6f;}</style></defs><g id="Ebene_2" data-name="Ebene 2"><g id="Layer_1" data-name="Layer 1"><polygon class="cls-1" points="111.4 21.28 158.9 56.74 168.4 49.65 120.9 14.19 111.4 21.28"/><polygon class="cls-2" points="111.4 35.46 158.9 70.92 168.4 63.83 120.9 28.37 111.4 35.46"/><polygon class="cls-1" points="101.91 28.37 149.4 63.83 139.9 70.92 92.41 35.46 101.91 28.37"/><polygon class="cls-2" points="101.91 42.55 149.4 78.02 139.9 85.11 92.41 49.65 101.91 42.55"/><polygon class="cls-1" points="130.4 7.09 177.89 42.55 187.39 35.46 139.9 0 130.4 7.09"/><polygon class="cls-3" points="101.91 56.74 149.4 92.2 139.9 99.29 92.41 63.83 101.91 56.74"/><polygon class="cls-2" points="130.4 21.28 177.89 56.74 187.39 49.65 139.9 14.19 130.4 21.28"/><polygon class="cls-3" points="168.4 78.02 158.9 85.11 139.9 70.92 149.4 63.83 168.4 78.02"/><polygon class="cls-3" points="158.9 56.74 168.4 49.65 187.39 63.83 177.89 70.92 158.9 56.74"/><path class="cls-4" d="M45.12,111a15,15,0,0,0-9.77-3.34,14.36,14.36,0,0,0-10.68,4.11A14.34,14.34,0,0,0,14,107.7,15.08,15.08,0,0,0,4.22,111,10.53,10.53,0,0,0,0,119.42v28.73c0,.49.26,1,3.31,1s3.32-.49,3.32-1V119.41a4.94,4.94,0,0,1,2.05-4A8.17,8.17,0,0,1,14,113.66a8,8,0,0,1,5.27,1.78,4.91,4.91,0,0,1,2.05,4v28.74c0,.79,1.14,1.19,3.4,1.19,3.23,0,3.23-.9,3.23-1.19V119.41a4.92,4.92,0,0,1,2-4,8,8,0,0,1,5.28-1.78,8.16,8.16,0,0,1,5.36,1.78,4.91,4.91,0,0,1,2,4v28.74c0,.49.25,1,3.32,1a15.53,15.53,0,0,0,2-.11c.47-.07,1.34-.18,1.34-.87V119.42A10.53,10.53,0,0,0,45.12,111Z"/><path class="cls-4" d="M64,108.45c-3.06,0-3.32.49-3.32,1v38.72c0,.5.26,1,3.32,1s3.31-.48,3.31-1V109.43C67.27,108.94,67,108.45,64,108.45Z"/><path class="cls-4" d="M98,108.75l-1.1-.3a18.32,18.32,0,0,0-4.82-.61,12.52,12.52,0,0,0-6.26,1.44c-5.16,2.84-7.77,7-7.77,12.22v26.65c0,.85,1,1.28,3,1.28,1.09,0,3.63-.12,3.63-1.28V121.49a7.56,7.56,0,0,1,4.6-7.23,7.43,7.43,0,0,1,2.95-.51,8.89,8.89,0,0,1,2.58.36l1.83.52a1.38,1.38,0,0,0,.45.08c1.21,0,2.37-1.59,2.8-2.27.89-1.38.72-1.77.65-1.91A4.29,4.29,0,0,0,98,108.75Z"/><path class="cls-4" d="M129.9,111.32a17.18,17.18,0,0,0-11.2-3.82h-.34a17.18,17.18,0,0,0-11.2,3.82,11.94,11.94,0,0,0-4.81,9.53v15.57a11.94,11.94,0,0,0,4.81,9.53,17.18,17.18,0,0,0,11.2,3.82h.34A17.18,17.18,0,0,0,129.9,146a11.93,11.93,0,0,0,4.82-9.53V120.85A11.93,11.93,0,0,0,129.9,111.32Zm-18.3,4.38a10.46,10.46,0,0,1,6.76-2.25h.34a10.44,10.44,0,0,1,6.76,2.25,6.35,6.35,0,0,1,2.63,5.13v15.54a6.43,6.43,0,0,1-2.64,5.17,10.3,10.3,0,0,1-6.75,2.27h-.34a10.23,10.23,0,0,1-6.76-2.27,6.46,6.46,0,0,1-2.63-5.17V120.83A6.35,6.35,0,0,1,111.6,115.7Z"/><path class="cls-4" d="M187.64,111a15,15,0,0,0-9.76-3.34,14.35,14.35,0,0,0-10.68,4.11,14.38,14.38,0,0,0-10.68-4.11,15,15,0,0,0-9.77,3.34,10.5,10.5,0,0,0-4.23,8.38v28.73c0,.49.26,1,3.31,1s3.32-.49,3.32-1V119.41a4.91,4.91,0,0,1,2-4,8.14,8.14,0,0,1,5.36-1.78,8,8,0,0,1,5.27,1.78,4.91,4.91,0,0,1,2,4v28.74c0,.28,0,1.13,3.42,1.13,3.21,0,3.21-.82,3.21-1.13V119.41a4.91,4.91,0,0,1,2.05-4,8,8,0,0,1,5.27-1.78,8.14,8.14,0,0,1,5.36,1.78,4.91,4.91,0,0,1,2.05,4v28.74c0,.49.25,1,3.32,1a15.53,15.53,0,0,0,2-.11c.47-.07,1.34-.18,1.34-.87V119.42A10.52,10.52,0,0,0,187.64,111Z"/><path class="cls-4" d="M205.4,108.45c-3.06,0-3.31.49-3.31,1v38.72c0,.5.25,1,3.31,1s3.31-.48,3.31-1V109.43C208.71,108.94,208.45,108.45,205.4,108.45Z"/><path class="cls-4" d="M227.47,115.7a10.55,10.55,0,0,1,6.8-2.25h.34a10.3,10.3,0,0,1,6.72,2.13,1.48,1.48,0,0,0,1,.35,3.85,3.85,0,0,0,2.38-1.16,3.94,3.94,0,0,0,1.64-2.44,1.24,1.24,0,0,0-.34-.92c-.15-.17-3.8-3.91-11.44-3.91h-.34a17.18,17.18,0,0,0-11.2,3.82,11.92,11.92,0,0,0-4.81,9.53v15.63A11.93,11.93,0,0,0,223,146a17.24,17.24,0,0,0,11.2,3.82h.34c7.64,0,11.29-3.75,11.44-3.91a1.25,1.25,0,0,0,.34-.93,4,4,0,0,0-1.64-2.43,3.82,3.82,0,0,0-2.38-1.17,1.48,1.48,0,0,0-1,.35,10.3,10.3,0,0,1-6.72,2.13h-.34a10.55,10.55,0,0,1-6.8-2.25,6.32,6.32,0,0,1-2.64-5.12V120.83A6.33,6.33,0,0,1,227.47,115.7Z"/><path class="cls-4" d="M278.65,111.32a17.18,17.18,0,0,0-11.2-3.82h-.34a17.23,17.23,0,0,0-11.21,3.82,12,12,0,0,0-4.81,9.53v15.57A12,12,0,0,0,255.9,146a17.23,17.23,0,0,0,11.21,3.82h.34a17.18,17.18,0,0,0,11.2-3.82,12,12,0,0,0,4.81-9.53V120.85A12,12,0,0,0,278.65,111.32Zm-18.3,4.38a10.44,10.44,0,0,1,6.76-2.25h.34a10.46,10.46,0,0,1,6.76,2.25,6.35,6.35,0,0,1,2.63,5.13v15.54a6.47,6.47,0,0,1-2.64,5.17,10.19,10.19,0,0,1-6.75,2.27h-.34a10.23,10.23,0,0,1-6.76-2.27,6.46,6.46,0,0,1-2.63-5.17V120.83A6.35,6.35,0,0,1,260.35,115.7Z"/></g></g></svg>